<svg viewBox="0 0 960 280" xmlns="http://www.w3.org/2000/svg" role="img" aria-label="Activity pulse">
  <defs>
    <linearGradient id="bg" x1="0" y1="0" x2="1" y2="1">
      <stop offset="0%" stop-color="#111827"/>
      <stop offset="100%" stop-color="#0b1220"/>
    </linearGradient>
    <linearGradient id="line" x1="0" y1="0" x2="1" y2="0">
      <stop offset="0%" stop-color="#31c7ff"/>
      <stop offset="100%" stop-color="#7af59a"/>
    </linearGradient>
    <style>
      .title { font: 700 24px monospace; fill: #e9f2ff; }
      .sub { font: 500 13px monospace; fill: #9cb0d2; }
      .grid { stroke: #22304d; stroke-width: 1; opacity: .5; }
      .line { fill: none; stroke: url(#line); stroke-width: 3; stroke-linecap: round; stroke-linejoin: round; stroke-dasharray: 1600; stroke-dashoffset: 1600; animation: draw 2.2s ease forwards; }
      .beat { fill: #55e3ff; opacity: .25; transform-origin: center; animation: pulse 1.6s ease-in-out infinite; }
      @keyframes draw { to { stroke-dashoffset: 0; } }
      @keyframes pulse { 0%,100% { opacity: .2; } 50% { opacity: .75; } }
    </style>
  </defs>
  <rect width="100%" height="100%" fill="url(#bg)"/>
  <text x="36" y="42" class="title">Activity Pulse Timeline</text>
  <text x="36" y="63" class="sub">Last 90 days • avg/day 0.1 • best streak 2 days • @Aciila</text>
  <g>
    <line class="grid" x1="60" y1="220" x2="920" y2="220"/>
    <line class="grid" x1="60" y1="170" x2="920" y2="170"/>
    <line class="grid" x1="60" y1="120" x2="920" y2="120"/>
    <line class="grid" x1="60" y1="70" x2="920" y2="70"/>
  </g>
  <polyline class="line" points="60.0,220.0 69.7,220.0 79.3,220.0 89.0,220.0 98.7,220.0 108.3,220.0 118.0,220.0 127.6,220.0 137.3,220.0 147.0,220.0 156.6,220.0 166.3,220.0 176.0,220.0 185.6,172.7 195.3,220.0 204.9,220.0 214.6,149.0 224.3,172.7 233.9,220.0 243.6,220.0 253.3,220.0 262.9,220.0 272.6,220.0 282.2,220.0 291.9,220.0 301.6,220.0 311.2,220.0 320.9,220.0 330.6,220.0 340.2,220.0 349.9,220.0 359.6,220.0 369.2,220.0 378.9,220.0 388.5,220.0 398.2,220.0 407.9,220.0 417.5,220.0 427.2,220.0 436.9,220.0 446.5,220.0 456.2,220.0 465.8,220.0 475.5,220.0 485.2,220.0 494.8,220.0 504.5,220.0 514.2,220.0 523.8,220.0 533.5,220.0 543.1,220.0 552.8,220.0 562.5,220.0 572.1,220.0 581.8,220.0 591.5,220.0 601.1,220.0 610.8,220.0 620.4,220.0 630.1,220.0 639.8,220.0 649.4,220.0 659.1,220.0 668.8,220.0 678.4,220.0 688.1,220.0 697.8,220.0 707.4,220.0 717.1,220.0 726.7,220.0 736.4,220.0 746.1,220.0 755.7,220.0 765.4,220.0 775.1,220.0 784.7,220.0 794.4,220.0 804.0,220.0 813.7,220.0 823.4,220.0 833.0,220.0 842.7,220.0 852.4,220.0 862.0,220.0 871.7,220.0 881.3,220.0 891.0,78.0 900.7,220.0 910.3,220.0 920.0,220.0"/>
  <rect class="beat" x="60.0" y="228.0" width="4" height="2.0" style="animation-delay:0.00s"/><rect class="beat" x="69.6" y="228.0" width="4" height="2.0" style="animation-delay:0.03s"/><rect class="beat" x="79.1" y="228.0" width="4" height="2.0" style="animation-delay:0.06s"/><rect class="beat" x="88.7" y="228.0" width="4" height="2.0" style="animation-delay:0.09s"/><rect class="beat" x="98.2" y="228.0" width="4" height="2.0" style="animation-delay:0.12s"/><rect class="beat" x="107.8" y="228.0" width="4" height="2.0" style="animation-delay:0.15s"/><rect class="beat" x="117.3" y="228.0" width="4" height="2.0" style="animation-delay:0.18s"/><rect class="beat" x="126.9" y="228.0" width="4" height="2.0" style="animation-delay:0.21s"/><rect class="beat" x="136.4" y="228.0" width="4" height="2.0" style="animation-delay:0.24s"/><rect class="beat" x="146.0" y="228.0" width="4" height="2.0" style="animation-delay:0.27s"/><rect class="beat" x="155.6" y="228.0" width="4" height="2.0" style="animation-delay:0.30s"/><rect class="beat" x="165.1" y="228.0" width="4" height="2.0" style="animation-delay:0.33s"/><rect class="beat" x="174.7" y="228.0" width="4" height="2.0" style="animation-delay:0.36s"/><rect class="beat" x="184.2" y="228.0" width="4" height="15.3" style="animation-delay:0.39s"/><rect class="beat" x="193.8" y="228.0" width="4" height="2.0" style="animation-delay:0.42s"/><rect class="beat" x="203.3" y="228.0" width="4" height="2.0" style="animation-delay:0.45s"/><rect class="beat" x="212.9" y="228.0" width="4" height="23.0" style="animation-delay:0.48s"/><rect class="beat" x="222.4" y="228.0" width="4" height="15.3" style="animation-delay:0.51s"/><rect class="beat" x="232.0" y="228.0" width="4" height="2.0" style="animation-delay:0.54s"/><rect class="beat" x="241.6" y="228.0" width="4" height="2.0" style="animation-delay:0.57s"/><rect class="beat" x="251.1" y="228.0" width="4" height="2.0" style="animation-delay:0.60s"/><rect class="beat" x="260.7" y="228.0" width="4" height="2.0" style="animation-delay:0.63s"/><rect class="beat" x="270.2" y="228.0" width="4" height="2.0" style="animation-delay:0.66s"/><rect class="beat" x="279.8" y="228.0" width="4" height="2.0" style="animation-delay:0.69s"/><rect class="beat" x="289.3" y="228.0" width="4" height="2.0" style="animation-delay:0.72s"/><rect class="beat" x="298.9" y="228.0" width="4" height="2.0" style="animation-delay:0.75s"/><rect class="beat" x="308.4" y="228.0" width="4" height="2.0" style="animation-delay:0.78s"/><rect class="beat" x="318.0" y="228.0" width="4" height="2.0" style="animation-delay:0.81s"/><rect class="beat" x="327.6" y="228.0" width="4" height="2.0" style="animation-delay:0.84s"/><rect class="beat" x="337.1" y="228.0" width="4" height="2.0" style="animation-delay:0.87s"/><rect class="beat" x="346.7" y="228.0" width="4" height="2.0" style="animation-delay:0.90s"/><rect class="beat" x="356.2" y="228.0" width="4" height="2.0" style="animation-delay:0.93s"/><rect class="beat" x="365.8" y="228.0" width="4" height="2.0" style="animation-delay:0.96s"/><rect class="beat" x="375.3" y="228.0" width="4" height="2.0" style="animation-delay:0.99s"/><rect class="beat" x="384.9" y="228.0" width="4" height="2.0" style="animation-delay:1.02s"/><rect class="beat" x="394.4" y="228.0" width="4" height="2.0" style="animation-delay:1.05s"/><rect class="beat" x="404.0" y="228.0" width="4" height="2.0" style="animation-delay:1.08s"/><rect class="beat" x="413.6" y="228.0" width="4" height="2.0" style="animation-delay:1.11s"/><rect class="beat" x="423.1" y="228.0" width="4" height="2.0" style="animation-delay:1.14s"/><rect class="beat" x="432.7" y="228.0" width="4" height="2.0" style="animation-delay:1.17s"/><rect class="beat" x="442.2" y="228.0" width="4" height="2.0" style="animation-delay:1.20s"/><rect class="beat" x="451.8" y="228.0" width="4" height="2.0" style="animation-delay:1.23s"/><rect class="beat" x="461.3" y="228.0" width="4" height="2.0" style="animation-delay:1.26s"/><rect class="beat" x="470.9" y="228.0" width="4" height="2.0" style="animation-delay:1.29s"/><rect class="beat" x="480.4" y="228.0" width="4" height="2.0" style="animation-delay:1.32s"/><rect class="beat" x="490.0" y="228.0" width="4" height="2.0" style="animation-delay:1.35s"/><rect class="beat" x="499.6" y="228.0" width="4" height="2.0" style="animation-delay:1.38s"/><rect class="beat" x="509.1" y="228.0" width="4" height="2.0" style="animation-delay:1.41s"/><rect class="beat" x="518.7" y="228.0" width="4" height="2.0" style="animation-delay:1.44s"/><rect class="beat" x="528.2" y="228.0" width="4" height="2.0" style="animation-delay:1.47s"/><rect class="beat" x="537.8" y="228.0" width="4" height="2.0" style="animation-delay:1.50s"/><rect class="beat" x="547.3" y="228.0" width="4" height="2.0" style="animation-delay:1.53s"/><rect class="beat" x="556.9" y="228.0" width="4" height="2.0" style="animation-delay:1.56s"/><rect class="beat" x="566.4" y="228.0" width="4" height="2.0" style="animation-delay:1.59s"/><rect class="beat" x="576.0" y="228.0" width="4" height="2.0" style="animation-delay:1.62s"/><rect class="beat" x="585.6" y="228.0" width="4" height="2.0" style="animation-delay:1.65s"/><rect class="beat" x="595.1" y="228.0" width="4" height="2.0" style="animation-delay:1.68s"/><rect class="beat" x="604.7" y="228.0" width="4" height="2.0" style="animation-delay:1.71s"/><rect class="beat" x="614.2" y="228.0" width="4" height="2.0" style="animation-delay:1.74s"/><rect class="beat" x="623.8" y="228.0" width="4" height="2.0" style="animation-delay:1.77s"/><rect class="beat" x="633.3" y="228.0" width="4" height="2.0" style="animation-delay:1.80s"/><rect class="beat" x="642.9" y="228.0" width="4" height="2.0" style="animation-delay:1.83s"/><rect class="beat" x="652.4" y="228.0" width="4" height="2.0" style="animation-delay:1.86s"/><rect class="beat" x="662.0" y="228.0" width="4" height="2.0" style="animation-delay:1.89s"/><rect class="beat" x="671.6" y="228.0" width="4" height="2.0" style="animation-delay:1.92s"/><rect class="beat" x="681.1" y="228.0" width="4" height="2.0" style="animation-delay:1.95s"/><rect class="beat" x="690.7" y="228.0" width="4" height="2.0" style="animation-delay:1.98s"/><rect class="beat" x="700.2" y="228.0" width="4" height="2.0" style="animation-delay:2.01s"/><rect class="beat" x="709.8" y="228.0" width="4" height="2.0" style="animation-delay:2.04s"/><rect class="beat" x="719.3" y="228.0" width="4" height="2.0" style="animation-delay:2.07s"/><rect class="beat" x="728.9" y="228.0" width="4" height="2.0" style="animation-delay:2.10s"/><rect class="beat" x="738.4" y="228.0" width="4" height="2.0" style="animation-delay:2.13s"/><rect class="beat" x="748.0" y="228.0" width="4" height="2.0" style="animation-delay:2.16s"/><rect class="beat" x="757.6" y="228.0" width="4" height="2.0" style="animation-delay:2.19s"/><rect class="beat" x="767.1" y="228.0" width="4" height="2.0" style="animation-delay:2.22s"/><rect class="beat" x="776.7" y="228.0" width="4" height="2.0" style="animation-delay:2.25s"/><rect class="beat" x="786.2" y="228.0" width="4" height="2.0" style="animation-delay:2.28s"/><rect class="beat" x="795.8" y="228.0" width="4" height="2.0" style="animation-delay:2.31s"/><rect class="beat" x="805.3" y="228.0" width="4" height="2.0" style="animation-delay:2.34s"/><rect class="beat" x="814.9" y="228.0" width="4" height="2.0" style="animation-delay:2.37s"/><rect class="beat" x="824.4" y="228.0" width="4" height="2.0" style="animation-delay:2.40s"/><rect class="beat" x="834.0" y="228.0" width="4" height="2.0" style="animation-delay:2.43s"/><rect class="beat" x="843.6" y="228.0" width="4" height="2.0" style="animation-delay:2.46s"/><rect class="beat" x="853.1" y="228.0" width="4" height="2.0" style="animation-delay:2.49s"/><rect class="beat" x="862.7" y="228.0" width="4" height="2.0" style="animation-delay:2.52s"/><rect class="beat" x="872.2" y="228.0" width="4" height="2.0" style="animation-delay:2.55s"/><rect class="beat" x="881.8" y="228.0" width="4" height="46.0" style="animation-delay:2.58s"/><rect class="beat" x="891.3" y="228.0" width="4" height="2.0" style="animation-delay:2.61s"/><rect class="beat" x="900.9" y="228.0" width="4" height="2.0" style="animation-delay:2.64s"/><rect class="beat" x="910.4" y="228.0" width="4" height="2.0" style="animation-delay:2.67s"/>
</svg>
