<svg viewBox="0 0 960 320" xmlns="http://www.w3.org/2000/svg" role="img" aria-label="Commit skyline">
  <defs>
    <linearGradient id="sky" x1="0" y1="0" x2="0" y2="1">
      <stop offset="0%" stop-color="#07152d"/>
      <stop offset="100%" stop-color="#0f2e5c"/>
    </linearGradient>
    <linearGradient id="bld" x1="0" y1="0" x2="0" y2="1">
      <stop offset="0%" stop-color="#51a2ff"/>
      <stop offset="100%" stop-color="#2668c6"/>
    </linearGradient>
    <style>
      .title { font: 700 24px monospace; fill: #dce9ff; }
      .sub { font: 500 13px monospace; fill: #98b8ea; }
      .building { fill: url(#bld); transform-origin: center 250px; opacity: 0; animation: rise .7s ease forwards; }
      .window { fill: #ffd86b; opacity: 0; animation: blink 2.4s ease-in-out infinite; }
      @keyframes rise { from { transform: scaleY(0.05); opacity: 0; } to { transform: scaleY(1); opacity: 1; } }
      @keyframes blink { 0%, 35%, 100% { opacity: .2; } 50% { opacity: 1; } }
    </style>
  </defs>
  <rect width="100%" height="100%" fill="url(#sky)"/>
  <text x="36" y="44" class="title">Commit Skyline</text>
  <text x="36" y="66" class="sub">@Aciila • 120 contributions in the last year</text>
  <rect x="0" y="250" width="100%" height="70" fill="#071224"/>
  <rect class="building" x="36" y="220" width="12" height="30" style="animation-delay:0.00s" /><rect class="building" x="53" y="220" width="12" height="30" style="animation-delay:0.04s" /><rect class="building" x="70" y="220" width="12" height="30" style="animation-delay:0.08s" /><rect class="building" x="87" y="220" width="12" height="30" style="animation-delay:0.12s" /><rect class="building" x="104" y="220" width="12" height="30" style="animation-delay:0.16s" /><rect class="building" x="121" y="220" width="12" height="30" style="animation-delay:0.20s" /><rect class="building" x="138" y="220" width="12" height="30" style="animation-delay:0.24s" /><rect class="building" x="155" y="220" width="12" height="30" style="animation-delay:0.28s" /><rect class="building" x="172" y="220" width="12" height="30" style="animation-delay:0.32s" /><rect class="building" x="189" y="220" width="12" height="30" style="animation-delay:0.36s" /><rect class="building" x="206" y="220" width="12" height="30" style="animation-delay:0.40s" /><rect class="building" x="223" y="129" width="12" height="121" style="animation-delay:0.44s" /><rect class="building" x="240" y="50" width="12" height="200" style="animation-delay:0.48s" /><rect class="building" x="257" y="220" width="12" height="30" style="animation-delay:0.52s" /><rect class="building" x="274" y="194" width="12" height="56" style="animation-delay:0.56s" /><rect class="building" x="291" y="220" width="12" height="30" style="animation-delay:0.60s" /><rect class="building" x="308" y="220" width="12" height="30" style="animation-delay:0.64s" /><rect class="building" x="325" y="220" width="12" height="30" style="animation-delay:0.68s" /><rect class="building" x="342" y="220" width="12" height="30" style="animation-delay:0.72s" /><rect class="building" x="359" y="202" width="12" height="48" style="animation-delay:0.76s" /><rect class="building" x="376" y="220" width="12" height="30" style="animation-delay:0.80s" /><rect class="building" x="393" y="220" width="12" height="30" style="animation-delay:0.84s" /><rect class="building" x="410" y="220" width="12" height="30" style="animation-delay:0.88s" /><rect class="building" x="427" y="220" width="12" height="30" style="animation-delay:0.92s" /><rect class="building" x="444" y="204" width="12" height="46" style="animation-delay:0.96s" /><rect class="building" x="461" y="220" width="12" height="30" style="animation-delay:1.00s" /><rect class="building" x="478" y="220" width="12" height="30" style="animation-delay:1.04s" />
  <rect class="window" x="38" y="234" width="3" height="5" style="animation-delay:0.00s" /><rect class="window" x="44" y="234" width="3" height="5" style="animation-delay:0.00s" /><rect class="window" x="55" y="234" width="3" height="5" style="animation-delay:0.07s" /><rect class="window" x="61" y="234" width="3" height="5" style="animation-delay:0.08s" /><rect class="window" x="72" y="234" width="3" height="5" style="animation-delay:0.14s" /><rect class="window" x="78" y="234" width="3" height="5" style="animation-delay:0.16s" /><rect class="window" x="89" y="234" width="3" height="5" style="animation-delay:0.21s" /><rect class="window" x="95" y="234" width="3" height="5" style="animation-delay:0.24s" /><rect class="window" x="106" y="234" width="3" height="5" style="animation-delay:0.28s" /><rect class="window" x="112" y="234" width="3" height="5" style="animation-delay:0.32s" /><rect class="window" x="123" y="234" width="3" height="5" style="animation-delay:0.35s" /><rect class="window" x="129" y="234" width="3" height="5" style="animation-delay:0.40s" /><rect class="window" x="140" y="234" width="3" height="5" style="animation-delay:0.42s" /><rect class="window" x="146" y="234" width="3" height="5" style="animation-delay:0.48s" /><rect class="window" x="157" y="234" width="3" height="5" style="animation-delay:0.49s" /><rect class="window" x="163" y="234" width="3" height="5" style="animation-delay:0.56s" /><rect class="window" x="174" y="234" width="3" height="5" style="animation-delay:0.56s" /><rect class="window" x="180" y="234" width="3" height="5" style="animation-delay:0.64s" /><rect class="window" x="191" y="234" width="3" height="5" style="animation-delay:0.63s" /><rect class="window" x="197" y="234" width="3" height="5" style="animation-delay:0.72s" /><rect class="window" x="208" y="234" width="3" height="5" style="animation-delay:0.70s" /><rect class="window" x="214" y="234" width="3" height="5" style="animation-delay:0.80s" /><rect class="window" x="225" y="234" width="3" height="5" style="animation-delay:0.77s" /><rect class="window" x="231" y="234" width="3" height="5" style="animation-delay:0.88s" /><rect class="window" x="225" y="218" width="3" height="5" style="animation-delay:0.84s" /><rect class="window" x="231" y="218" width="3" height="5" style="animation-delay:0.96s" /><rect class="window" x="225" y="202" width="3" height="5" style="animation-delay:0.91s" /><rect class="window" x="231" y="202" width="3" height="5" style="animation-delay:1.04s" /><rect class="window" x="225" y="186" width="3" height="5" style="animation-delay:0.98s" /><rect class="window" x="231" y="186" width="3" height="5" style="animation-delay:1.12s" /><rect class="window" x="225" y="170" width="3" height="5" style="animation-delay:1.05s" /><rect class="window" x="231" y="170" width="3" height="5" style="animation-delay:1.20s" /><rect class="window" x="225" y="154" width="3" height="5" style="animation-delay:1.12s" /><rect class="window" x="231" y="154" width="3" height="5" style="animation-delay:1.28s" /><rect class="window" x="242" y="234" width="3" height="5" style="animation-delay:0.84s" /><rect class="window" x="248" y="234" width="3" height="5" style="animation-delay:0.96s" /><rect class="window" x="242" y="218" width="3" height="5" style="animation-delay:0.91s" /><rect class="window" x="248" y="218" width="3" height="5" style="animation-delay:1.04s" /><rect class="window" x="242" y="202" width="3" height="5" style="animation-delay:0.98s" /><rect class="window" x="248" y="202" width="3" height="5" style="animation-delay:1.12s" /><rect class="window" x="242" y="186" width="3" height="5" style="animation-delay:1.05s" /><rect class="window" x="248" y="186" width="3" height="5" style="animation-delay:1.20s" /><rect class="window" x="242" y="170" width="3" height="5" style="animation-delay:1.12s" /><rect class="window" x="248" y="170" width="3" height="5" style="animation-delay:1.28s" /><rect class="window" x="242" y="154" width="3" height="5" style="animation-delay:1.19s" /><rect class="window" x="248" y="154" width="3" height="5" style="animation-delay:1.36s" /><rect class="window" x="242" y="138" width="3" height="5" style="animation-delay:1.26s" /><rect class="window" x="248" y="138" width="3" height="5" style="animation-delay:1.44s" /><rect class="window" x="242" y="122" width="3" height="5" style="animation-delay:1.33s" /><rect class="window" x="248" y="122" width="3" height="5" style="animation-delay:1.52s" /><rect class="window" x="242" y="106" width="3" height="5" style="animation-delay:1.40s" /><rect class="window" x="248" y="106" width="3" height="5" style="animation-delay:1.60s" /><rect class="window" x="242" y="90" width="3" height="5" style="animation-delay:1.47s" /><rect class="window" x="248" y="90" width="3" height="5" style="animation-delay:1.68s" /><rect class="window" x="259" y="234" width="3" height="5" style="animation-delay:0.91s" /><rect class="window" x="265" y="234" width="3" height="5" style="animation-delay:1.04s" /><rect class="window" x="276" y="234" width="3" height="5" style="animation-delay:0.98s" /><rect class="window" x="282" y="234" width="3" height="5" style="animation-delay:1.12s" /><rect class="window" x="276" y="218" width="3" height="5" style="animation-delay:1.05s" /><rect class="window" x="282" y="218" width="3" height="5" style="animation-delay:1.20s" /><rect class="window" x="293" y="234" width="3" height="5" style="animation-delay:1.05s" /><rect class="window" x="299" y="234" width="3" height="5" style="animation-delay:1.20s" /><rect class="window" x="310" y="234" width="3" height="5" style="animation-delay:1.12s" /><rect class="window" x="316" y="234" width="3" height="5" style="animation-delay:1.28s" /><rect class="window" x="327" y="234" width="3" height="5" style="animation-delay:1.19s" /><rect class="window" x="333" y="234" width="3" height="5" style="animation-delay:1.36s" /><rect class="window" x="344" y="234" width="3" height="5" style="animation-delay:1.26s" /><rect class="window" x="350" y="234" width="3" height="5" style="animation-delay:1.44s" /><rect class="window" x="361" y="234" width="3" height="5" style="animation-delay:1.33s" /><rect class="window" x="367" y="234" width="3" height="5" style="animation-delay:1.52s" /><rect class="window" x="361" y="218" width="3" height="5" style="animation-delay:1.40s" /><rect class="window" x="367" y="218" width="3" height="5" style="animation-delay:1.60s" /><rect class="window" x="378" y="234" width="3" height="5" style="animation-delay:1.40s" /><rect class="window" x="384" y="234" width="3" height="5" style="animation-delay:1.60s" /><rect class="window" x="395" y="234" width="3" height="5" style="animation-delay:1.47s" /><rect class="window" x="401" y="234" width="3" height="5" style="animation-delay:1.68s" /><rect class="window" x="412" y="234" width="3" height="5" style="animation-delay:1.54s" /><rect class="window" x="418" y="234" width="3" height="5" style="animation-delay:1.76s" /><rect class="window" x="429" y="234" width="3" height="5" style="animation-delay:1.61s" /><rect class="window" x="435" y="234" width="3" height="5" style="animation-delay:1.84s" /><rect class="window" x="446" y="234" width="3" height="5" style="animation-delay:1.68s" /><rect class="window" x="452" y="234" width="3" height="5" style="animation-delay:1.92s" /><rect class="window" x="446" y="218" width="3" height="5" style="animation-delay:1.75s" /><rect class="window" x="452" y="218" width="3" height="5" style="animation-delay:2.00s" /><rect class="window" x="463" y="234" width="3" height="5" style="animation-delay:1.75s" /><rect class="window" x="469" y="234" width="3" height="5" style="animation-delay:2.00s" /><rect class="window" x="480" y="234" width="3" height="5" style="animation-delay:1.82s" /><rect class="window" x="486" y="234" width="3" height="5" style="animation-delay:2.08s" />
</svg>
